<?xml version="1.0" encoding="UTF-8"?>
<svg xmlns="http://www.w3.org/2000/svg" viewBox="0 0 100 100" width="400" height="400">
    <!-- Dome Base -->
    <path d="M 50 30 C 65 45 75 60 75 80 L 25 80 C 25 60 35 45 50 30 Z" fill="#FFFFFF" />
    <rect x="23" y="80" width="54" height="4" fill="#FFFFFF" rx="2" />
    
    <!-- Left Minaret -->
    <rect x="15" y="50" width="6" height="34" fill="#FFFFFF" rx="1" />
    <polygon points="14,50 18,35 22,50" fill="#FFFFFF" />
    
    <!-- Right Minaret -->
    <rect x="79" y="50" width="6" height="34" fill="#FFFFFF" rx="1" />
    <polygon points="78,50 82,35 86,50" fill="#FFFFFF" />
    
    <!-- Crescent on top of dome -->
    <path d="M 50 25 A 6 6 0 1 1 54 15 A 5 5 0 1 0 46 22 A 6 6 0 0 1 50 25 Z" fill="#FFFFFF"/>
</svg>