<svg xmlns="http://www.w3.org/2000/svg" viewBox="0 0 512 512" width="512" height="512">
	<!-- هلال شاشة البدء (ذهبي) - أنحف -->
	<g transform="translate(0, 0) scale(0.8) translate(0, 60)">
		<!-- هلال أنحف عن طريق تعديل المسار -->
		<path d="M340 350C245 350 170 275 170 180C170 155 178 130 190 108C125 133 80 198 80 270C80 365 160 445 255 445C325 445 385 405 410 345C385 350 363 350 340 350Z" fill="#D4AF37"/>
		<!-- نجمة ثمانية صغيرة -->
		<path d="M265 110L275 125L290 135L275 145L265 160L255 145L240 135L255 125L265 110Z" fill="#F0C850"/>
	</g>
</svg>