<svg width="512" height="512" viewBox="0 0 512 512" fill="none" xmlns="http://www.w3.org/2000/svg">
  <!-- خلفية متدرجة فخمة -->
  <defs>
    <radialGradient id="grad1" cx="50%" cy="50%" r="50%" fx="50%" fy="50%">
      <stop offset="0%" style="stop-color:#2C6E2C;stop-opacity:1" />
      <stop offset="100%" style="stop-color:#143214;stop-opacity:1" />
    </radialGradient>
  </defs>
  <rect width="512" height="512" rx="100" fill="url(#grad1)"/>
  
  <!-- الهلال الذهبي -->
  <path d="M340 330C260 330 195 265 195 185C195 160 200 137 210 115C150 135 110 195 110 260C110 345 180 415 265 415C325 415 380 380 405 325C385 328 363 330 340 330Z" fill="#D4AF37"/>
  
  <!-- النجمة الثمانية (Rub el Hizb) بتأثير مضيء -->
  <path d="M265 110L282 138L310 155L282 172L265 200L248 172L220 155L248 138L265 110Z" fill="#F0C850" filter="drop-shadow(0 0 5px rgba(212, 175, 55, 0.8))"/>
  
  <!-- زينة زخرفية هادئة -->
  <circle cx="265" cy="155" r="5" fill="white" opacity="0.6"/>
</svg>